# xmcd CD database file
#
# Track frame offsets:
#	150
#	15987
#	35540
#	53340
#	75472
#	99702
#	120465
#	135265
#	153410
#	199075
#	220857
#	239297
#	257092
#	280675
#
# Disc length: 4060 seconds
#
# Revision: 1
# Processed by: cddbd v1.5.1PL0 Copyright (c) Steve Scherf et al.
# Submitted via: CDex 1.51
#
DISCID=aa0fda0e
DTITLE=Candy Dulfer - The Best of Candy Dulfer
DYEAR=1998
DGENRE=Jazz
TTITLE0=DA BUMP
TTITLE1=LILY WAS HERE
TTITLE2=SAX A GOGO
TTITLE3=BOB'S JAZZ
TTITLE4=JAMMING
TTITLE5=SMOOTH
TTITLE6=TOMMYGUN
TTITLE7=PICK UP THE PIECES
TTITLE8=I CAN'T MAKE U LOVE ME
TTITLE9=2 FUNKY
TTITLE10=BIG GIRL
TTITLE11=FOR THE LOVE OF YOU
TTITLE12=FUNKYNESS
TTITLE13=DUNJA
EXTD=YEAR: 1998
EXTT0=
EXTT1=
EXTT2=
EXTT3=
EXTT4=
EXTT5=
EXTT6=
EXTT7=
EXTT8=
EXTT9=
EXTT10=
EXTT11=
EXTT12=
EXTT13=
PLAYORDER=
